<svg width="180" height="180" viewBox="0 0 180 180" fill="none" xmlns="http://www.w3.org/2000/svg">
<path d="M90 3.99991C42.5042 3.99991 4 42.5087 4 90.0066C4 137.491 42.5042 176.007 90 176.007C137.496 176.007 176 137.491 176 90.0066C176 42.5087 137.496 3.99991 90 3.99991Z" fill="white" stroke="white" stroke-width="8"/>
<path d="M133.811 53.4467C133.467 52.4334 133.056 52.1667 132.415 51.9134C131.012 51.3934 128.636 52.18 128.636 52.18C128.636 52.18 44.523 82.42 39.7177 85.7667C38.683 86.4867 38.3364 86.9133 38.1644 87.4067C37.3337 89.78 39.9217 90.8334 39.9217 90.8334L61.6017 97.9C61.6017 97.9 62.4097 98.02 62.6977 97.8334C67.6297 94.7134 112.319 66.5 114.896 65.5533C115.303 65.4333 115.604 65.5667 115.524 65.8467C114.492 69.4734 75.6777 103.967 75.6777 103.967C75.6777 103.967 75.5297 104.153 75.4364 104.367L75.3857 104.34L73.363 125.847C73.363 125.847 72.515 132.433 79.103 125.847C83.751 121.193 88.2484 117.3 90.499 115.42C97.9537 120.567 105.976 126.26 109.439 129.233C111.178 130.727 112.632 130.967 113.83 130.927C117.116 130.807 118.034 127.193 118.034 127.193C118.034 127.193 133.362 65.5 133.874 57.2334C133.924 56.42 133.994 55.9133 133.999 55.3533C134.008 54.58 133.936 53.8067 133.811 53.4467Z" fill="black"/>
</svg>
